<svg viewBox="0 0 640 360" xmlns="http://www.w3.org/2000/svg">
  <defs>
    <linearGradient id="bizBg" x1="0" y1="0" x2="1" y2="1">
      <stop offset="0" stop-color="#fdf8ef"/>
      <stop offset="1" stop-color="#ffffff"/>
    </linearGradient>
  </defs>
  <rect width="640" height="360" fill="url(#bizBg)"/>
  <circle cx="60" cy="280" r="90" fill="#efe7d3" opacity="0.6"/>
  <circle cx="580" cy="70" r="80" fill="#efe7d3" opacity="0.5"/>

  <!-- monitor -->
  <rect x="130" y="44" width="380" height="234" rx="12" fill="#0c4a6e"/>
  <rect x="142" y="56" width="356" height="202" rx="4" fill="#ffffff"/>
  <rect x="300" y="278" width="40" height="10" rx="2" fill="#075985"/>

  <!-- sidebar -->
  <rect x="142" y="56" width="46" height="202" fill="#0369a1"/>
  <rect x="154" y="76" width="22" height="6" rx="3" fill="#bae6fd"/>
  <rect x="154" y="96" width="22" height="6" rx="3" fill="#7dd3fc"/>
  <rect x="154" y="116" width="22" height="6" rx="3" fill="#7dd3fc"/>
  <rect x="154" y="136" width="22" height="6" rx="3" fill="#7dd3fc"/>

  <!-- stat cards row -->
  <rect x="202" y="70" width="76" height="46" rx="6" fill="#eff6ff" stroke="#bfdbfe"/>
  <rect x="286" y="70" width="76" height="46" rx="6" fill="#eff6ff" stroke="#bfdbfe"/>
  <rect x="370" y="70" width="76" height="46" rx="6" fill="#eff6ff" stroke="#bfdbfe"/>
  <rect x="212" y="80" width="30" height="8" rx="4" fill="#0369a1"/>
  <rect x="296" y="80" width="30" height="8" rx="4" fill="#0369a1"/>
  <rect x="380" y="80" width="30" height="8" rx="4" fill="#0369a1"/>
  <rect x="212" y="96" width="50" height="6" rx="3" fill="#93c5fd"/>
  <rect x="296" y="96" width="50" height="6" rx="3" fill="#93c5fd"/>
  <rect x="380" y="96" width="50" height="6" rx="3" fill="#93c5fd"/>

  <!-- table rows -->
  <rect x="202" y="128" width="244" height="18" rx="4" fill="#f8fafc"/>
  <rect x="202" y="150" width="244" height="18" rx="4" fill="#f1f5f9"/>
  <rect x="202" y="172" width="244" height="18" rx="4" fill="#f8fafc"/>
  <rect x="202" y="194" width="244" height="18" rx="4" fill="#f1f5f9"/>
  <rect x="212" y="134" width="90" height="6" rx="3" fill="#cbd5e1"/>
  <rect x="212" y="156" width="90" height="6" rx="3" fill="#cbd5e1"/>
  <rect x="212" y="178" width="90" height="6" rx="3" fill="#cbd5e1"/>
  <rect x="212" y="200" width="90" height="6" rx="3" fill="#cbd5e1"/>

  <!-- donut chart -->
  <g transform="translate(410,175)">
    <circle r="34" fill="#dbeafe"/>
    <path d="M0 -34 A34 34 0 1 1 -32 -12 L-19 -7 A20 20 0 1 0 0 -20 Z" fill="#0369a1"/>
    <path d="M-32 -12 A34 34 0 0 0 0 34 L0 20 A20 20 0 0 1 -19 -7 Z" fill="#38bdf8"/>
    <circle r="16" fill="#ffffff"/>
  </g>
</svg>
